<svg width="370" height="246" viewBox="0 0 370 246" fill="none" xmlns="http://www.w3.org/2000/svg">
<g clip-path="url(#clip0_31_345)">
<path d="M355.537 163.988C352.866 166.906 349.552 169.079 345.957 170.766H345.952C345.614 170.927 345.276 171.083 344.933 171.23H344.929L344.924 171.235L344.92 171.23H344.916L344.916 171.232L344.915 171.234L344.913 171.235L344.911 171.235H344.907L344.903 171.23C344.899 171.235 344.899 171.235 344.894 171.23L344.89 171.235L344.885 171.23H344.881C344.877 171.235 344.877 171.235 344.873 171.23H344.868C342.462 172.271 339.99 173.155 337.469 173.876C322.645 178.082 307.064 178.896 291.883 176.257C291.592 176.205 291.306 176.153 291.015 176.101V140.923C291.301 140.802 291.592 140.68 291.883 140.563C293.778 139.778 295.696 139.057 297.638 138.399C300.431 137.445 303.263 136.627 306.134 135.944C315.501 133.677 325.166 132.896 334.776 133.628C336.524 133.758 338.267 133.946 340.006 134.192C343.645 134.7 347.462 135.584 350.819 137.12H350.823C351.313 137.35 351.794 137.588 352.271 137.844C355.255 139.462 357.771 141.687 359.306 144.736C359.858 145.831 360.255 146.997 360.486 148.201V148.209C360.572 148.626 360.633 149.047 360.681 149.463C361.227 154.598 359.098 160.093 355.537 163.988Z" fill="#F2F2F2"/>
<path d="M360.681 149.463C360.638 149.474 360.595 149.479 360.551 149.48C353.122 149.806 345.702 150.288 338.293 150.929H338.28C338.25 150.933 338.224 150.933 338.194 150.938C330.586 151.597 322.995 152.422 315.42 153.414C315.099 153.457 314.782 153.501 314.465 153.54C309.226 154.238 303.997 155.013 298.778 155.864C296.475 156.242 294.177 156.635 291.883 157.044C291.592 157.096 291.306 157.144 291.015 157.2V155.886C291.306 155.83 291.596 155.782 291.883 155.73C299.524 154.377 307.192 153.196 314.886 152.187C316.82 151.926 318.758 151.681 320.698 151.449C326.301 150.773 331.913 150.189 337.534 149.697C337.946 149.662 338.354 149.628 338.766 149.593C345.961 148.982 353.166 148.517 360.382 148.201C360.417 148.199 360.452 148.202 360.486 148.21C361.18 148.27 361.327 149.311 360.681 149.463Z" fill="white"/>
<path d="M345.252 169.952C335.997 170.02 326.879 166.096 320.333 159.6C318.485 157.76 316.858 155.713 315.482 153.498C315.041 152.79 314.008 153.571 314.446 154.272C319.53 162.426 327.999 168.235 337.336 170.37C339.988 170.971 342.7 171.261 345.419 171.235C346.249 171.229 346.077 169.946 345.252 169.952Z" fill="white"/>
<path d="M306.134 135.944C306.094 136.066 306.023 136.176 305.928 136.262C305.833 136.348 305.717 136.407 305.592 136.434C303.471 136.99 301.422 137.791 299.485 138.82C296.658 140.313 294.091 142.254 291.883 144.566C291.765 144.683 291.653 144.801 291.544 144.922C291.362 145.113 291.189 145.308 291.015 145.507V143.617C291.293 143.322 291.583 143.031 291.883 142.753C293.626 141.084 295.557 139.623 297.638 138.399C300.431 137.445 303.263 136.627 306.134 135.944Z" fill="white"/>
<path d="M351.585 136.778C345.698 139.308 340.772 143.652 337.524 149.176C337.458 149.334 337.457 149.511 337.522 149.67C337.586 149.829 337.71 149.955 337.868 150.023C338.026 150.086 338.203 150.085 338.36 150.021C338.518 149.957 338.645 149.834 338.715 149.679C341.815 144.462 346.492 140.364 352.072 137.976C352.837 137.649 352.353 136.45 351.585 136.778Z" fill="white"/>
<path d="M369.333 99.9426C368.327 103.768 366.397 107.233 363.999 110.395L363.994 110.399C363.773 110.694 363.543 110.993 363.305 111.28V111.284C361.64 113.335 359.842 115.275 357.923 117.091C351.024 123.666 343.231 129.233 334.776 133.628C321.474 140.576 306.607 144.683 291.883 144.918C291.77 144.922 291.657 144.922 291.544 144.922C291.366 144.926 291.189 144.926 291.015 144.926V125.215C291.297 124.677 291.588 124.139 291.883 123.605C295.709 116.72 300.375 110.336 305.774 104.601C305.904 104.457 306.039 104.314 306.173 104.176C308.203 102.033 310.331 99.9932 312.557 98.056C321.122 90.5253 331.02 84.6634 341.741 80.7729C345.198 79.5325 348.988 78.5393 352.675 78.3442C353.217 78.3138 353.755 78.3008 354.297 78.3051C357.693 78.3528 360.95 79.1552 363.73 81.1416C364.725 81.8566 365.618 82.7044 366.384 83.6614C366.653 83.9953 366.9 84.3379 367.139 84.6892V84.6936C370.01 88.9873 370.678 94.8379 369.333 99.9426Z" fill="#F2F2F2"/>
<path d="M367.139 84.6893V84.6937C367.107 84.7217 367.072 84.7464 367.035 84.7674C360.616 88.5016 354.278 92.3717 348.021 96.3776C348.012 96.382 348.008 96.3863 347.999 96.3907C347.974 96.4081 347.948 96.424 347.921 96.4384C341.489 100.559 335.149 104.818 328.899 109.215C328.639 109.397 328.374 109.584 328.11 109.77C323.794 112.819 319.524 115.933 315.298 119.112C307.318 125.124 299.513 131.357 291.883 137.814C291.592 138.057 291.306 138.304 291.015 138.551V136.864C291.301 136.617 291.592 136.369 291.883 136.127C294.806 133.659 297.755 131.226 300.73 128.827C301.619 128.112 302.513 127.396 303.406 126.689C311.343 120.37 319.457 114.287 327.75 108.439H327.754C329.385 107.29 331.019 106.15 332.655 105.021C337.304 101.821 342.006 98.6965 346.759 95.649C347.102 95.4278 347.449 95.2066 347.796 94.9855C353.881 91.0995 360.045 87.3407 366.289 83.7092C366.319 83.6907 366.351 83.6747 366.384 83.6615C367.035 83.4012 367.646 84.26 367.139 84.6893Z" fill="white"/>
<path d="M362.996 110.002C354.832 114.361 344.934 115.121 336.119 112.41C333.629 111.638 331.236 110.581 328.989 109.259C328.27 108.837 327.718 110.008 328.431 110.426C336.721 115.285 346.919 116.495 356.18 114.049C358.807 113.349 361.344 112.346 363.739 111.06C364.471 110.669 363.723 109.613 362.996 110.002Z" fill="white"/>
<path d="M301.91 125.87C301.506 123.6 301.367 121.29 301.497 118.988C301.789 113.737 303.397 108.643 306.173 104.176C308.205 102.035 310.333 99.9945 312.558 98.0559C312.579 98.1827 312.567 98.3128 312.522 98.4333C312.478 98.5538 312.402 98.6607 312.304 98.7433C310.685 100.221 309.242 101.881 308.005 103.691C303.586 110.14 301.862 118.06 303.199 125.763C303.22 125.85 303.219 125.942 303.196 126.029C303.172 126.115 303.126 126.195 303.063 126.259C302.97 126.339 302.858 126.394 302.737 126.418C302.616 126.442 302.492 126.434 302.375 126.395C302.258 126.356 302.154 126.287 302.073 126.195C301.991 126.103 301.935 125.991 301.91 125.87Z" fill="white"/>
<path d="M353.194 77.6817C349.156 82.6573 346.811 88.7918 346.501 95.1924C346.516 95.3629 346.598 95.5205 346.728 95.6311C346.859 95.7417 347.028 95.7963 347.199 95.7831C347.368 95.765 347.524 95.6823 347.634 95.5523C347.744 95.4224 347.8 95.255 347.79 95.0851C348.111 89.0248 350.349 83.2232 354.181 78.5171C354.707 77.8718 353.721 77.0351 353.194 77.6817Z" fill="white"/>
<path d="M308.281 91.9321V91.9365C308.251 92.3095 308.216 92.6781 308.177 93.0468V93.0554C307.875 95.6795 307.404 98.2814 306.767 100.845C306.464 102.102 306.134 103.352 305.774 104.601C305.731 104.761 305.683 104.922 305.635 105.078V105.082C304.576 108.715 303.31 112.284 301.845 115.773C299.148 122.196 295.81 128.331 291.883 134.084C291.601 134.504 291.31 134.925 291.015 135.342V67.4235C291.306 67.4062 291.592 67.4062 291.883 67.4149C292.021 67.4149 292.16 67.4192 292.299 67.4279C293.523 67.4922 294.731 67.7272 295.89 68.1262C296.298 68.2606 296.692 68.4124 297.083 68.5816C301.814 70.6547 305.531 75.2259 307.145 80.2525C308.355 84.017 308.597 87.9768 308.281 91.9321Z" fill="#F2F2F2"/>
<path d="M297.083 68.5816C297.073 68.6241 297.056 68.665 297.035 68.703C295.278 72.1163 293.561 75.5469 291.883 78.9948C291.592 79.589 291.301 80.1875 291.015 80.7817V77.8325C291.301 77.2426 291.591 76.6528 291.883 76.063C293.179 73.4347 294.498 70.818 295.838 68.2129C295.853 68.1825 295.87 68.1535 295.89 68.1262C296.289 67.5537 297.278 67.944 297.083 68.5816Z" fill="white"/>
<path d="M308.42 92.6304C308.342 92.7691 308.264 92.9079 308.177 93.0467C306.903 95.2661 305.388 97.3374 303.658 99.2227C300.335 102.828 296.333 105.741 291.883 107.797C291.596 107.936 291.306 108.066 291.015 108.187V106.778C291.306 106.648 291.596 106.513 291.883 106.374C298.325 103.301 303.677 98.3355 307.223 92.1403C307.274 92.0518 307.343 91.9754 307.427 91.9162C307.51 91.8569 307.605 91.8163 307.705 91.7969C307.806 91.7776 307.909 91.7801 308.008 91.8041C308.108 91.8282 308.201 91.8733 308.281 91.9364C308.336 91.9729 308.383 92.0197 308.419 92.0743C308.456 92.1289 308.481 92.1902 308.494 92.2546C308.507 92.3191 308.507 92.3854 308.494 92.4499C308.481 92.5144 308.456 92.5757 308.42 92.6304Z" fill="white"/>
<path d="M291.882 14.3122V47.2737H291.015V46.9224H0.867407V47.2737H0V14.3122C0.00372481 10.5175 1.51281 6.87932 4.19606 4.19606C6.87932 1.51281 10.5175 0.00372481 14.3122 0H277.57C281.365 0.00372481 285.003 1.51281 287.686 4.19606C290.37 6.87932 291.879 10.5175 291.882 14.3122Z" fill="#F95738"/>
<path d="M277.57 0H14.3122C10.5175 0.00372481 6.87932 1.51281 4.19606 4.19606C1.51281 6.87932 0.00372481 10.5175 0 14.3122V202.54C0.00372481 206.334 1.51281 209.972 4.19606 212.656C6.87932 215.339 10.5175 216.848 14.3122 216.852H277.57C281.365 216.848 285.003 215.339 287.686 212.656C290.37 209.972 291.879 206.334 291.882 202.54V14.3122C291.879 10.5175 290.37 6.87932 287.686 4.19606C285.003 1.51281 281.365 0.00372481 277.57 0ZM291.015 202.54C291.01 206.104 289.592 209.521 287.072 212.041C284.552 214.562 281.135 215.98 277.57 215.984H14.3122C10.7478 215.98 7.33072 214.562 4.81032 212.041C2.28991 209.521 0.871955 206.104 0.867407 202.54V14.3122C0.871955 10.7478 2.28991 7.33073 4.81032 4.81033C7.33072 2.28992 10.7478 0.871955 14.3122 0.867407H277.57C281.135 0.871956 284.552 2.28992 287.072 4.81033C289.592 7.33073 291.01 10.7478 291.015 14.3122V202.54Z" fill="#3F3D56"/>
<path d="M58.9836 32.3109C63.7742 32.3109 67.6577 28.4274 67.6577 23.6368C67.6577 18.8463 63.7742 14.9628 58.9836 14.9628C54.1931 14.9628 50.3096 18.8463 50.3096 23.6368C50.3096 28.4274 54.1931 32.3109 58.9836 32.3109Z" fill="white"/>
<path d="M232.899 32.3109C237.689 32.3109 241.573 28.4274 241.573 23.6368C241.573 18.8463 237.689 14.9628 232.899 14.9628C228.108 14.9628 224.225 18.8463 224.225 23.6368C224.225 28.4274 228.108 32.3109 232.899 32.3109Z" fill="white"/>
<path d="M84.0452 120.354H32.4448C30.2588 120.351 28.163 119.482 26.6172 117.936C25.0714 116.39 24.2019 114.294 24.1995 112.108V87.7199C24.2019 85.5339 25.0714 83.4381 26.6172 81.8923C28.163 80.3466 30.2588 79.4771 32.4448 79.4746H84.0452C86.2312 79.4771 88.327 80.3466 89.8728 81.8923C91.4186 83.4381 92.2881 85.5339 92.2905 87.7199V112.108C92.2881 114.294 91.4186 116.39 89.8728 117.936C88.327 119.482 86.2312 120.351 84.0452 120.354Z" fill="#F95738"/>
<path d="M171.826 120.354H120.226C118.04 120.351 115.944 119.482 114.398 117.936C112.852 116.39 111.983 114.294 111.98 112.108V87.7199C111.983 85.5339 112.852 83.4381 114.398 81.8923C115.944 80.3466 118.04 79.4771 120.226 79.4746H171.826C174.012 79.4771 176.108 80.3466 177.654 81.8923C179.199 83.4381 180.069 85.5339 180.071 87.7199V112.108C180.069 114.294 179.199 116.39 177.654 117.936C176.108 119.482 174.012 120.351 171.826 120.354Z" fill="#F95738"/>
<path d="M171.826 183.367H120.226C117.973 183.364 115.814 182.469 114.221 180.876C112.629 179.283 111.733 177.124 111.73 174.872V150.483C111.733 148.231 112.629 146.072 114.221 144.479C115.814 142.886 117.973 141.991 120.226 141.988H171.826C174.078 141.991 176.238 142.886 177.83 144.479C179.423 146.072 180.319 148.231 180.321 150.483V174.872C180.319 177.124 179.423 179.283 177.83 180.876C176.238 182.469 174.078 183.364 171.826 183.367Z" fill="#F2F2F2"/>
<path d="M83.8759 183.367H32.2754C30.0232 183.364 27.8639 182.469 26.2712 180.876C24.6786 179.283 23.7828 177.124 23.7803 174.872V150.483C23.7828 148.231 24.6786 146.072 26.2712 144.479C27.8639 142.886 30.0232 141.991 32.2754 141.988H83.8759C86.1281 141.991 88.2874 142.886 89.8801 144.479C91.4727 146.072 92.3685 148.231 92.371 150.483V174.872C92.3685 177.124 91.4727 179.283 89.8801 180.876C88.2874 182.469 86.1281 183.364 83.8759 183.367Z" fill="#F2F2F2"/>
<path d="M259.607 183.367H208.007C205.754 183.364 203.595 182.469 202.002 180.876C200.41 179.283 199.514 177.124 199.511 174.872V150.483C199.514 148.231 200.41 146.072 202.002 144.479C203.595 142.886 205.754 141.991 208.007 141.988H259.607C261.859 141.991 264.019 142.886 265.611 144.479C267.204 146.072 268.1 148.231 268.102 150.483V174.872C268.1 177.124 267.204 179.283 265.611 180.876C264.019 182.469 261.859 183.364 259.607 183.367Z" fill="#F2F2F2"/>
<path d="M259.607 120.403H208.007C205.754 120.4 203.595 119.504 202.002 117.912C200.41 116.319 199.514 114.16 199.511 111.907V87.5189C199.514 85.2666 200.41 83.1073 202.002 81.5147C203.595 79.9221 205.754 79.0262 208.007 79.0237H259.607C261.859 79.0262 264.019 79.9221 265.611 81.5147C267.204 83.1073 268.1 85.2666 268.102 87.5189V111.907C268.1 114.16 267.204 116.319 265.611 117.912C264.019 119.504 261.859 120.4 259.607 120.403Z" fill="#F2F2F2"/>
<path d="M58.2448 113.906C65.9724 113.906 72.2368 107.642 72.2368 99.9141C72.2368 92.1865 65.9724 85.922 58.2448 85.922C50.5171 85.922 44.2527 92.1865 44.2527 99.9141C44.2527 107.642 50.5171 113.906 58.2448 113.906Z" fill="white"/>
<path d="M56.8579 105.252C56.5431 105.252 56.2367 105.15 55.9848 104.962L55.9692 104.95L52.6809 102.432C52.5284 102.316 52.4004 102.17 52.3042 102.004C52.208 101.838 52.1454 101.655 52.1202 101.464C52.0949 101.274 52.1073 101.081 52.1568 100.895C52.2063 100.71 52.2919 100.536 52.4087 100.383C52.5254 100.231 52.6711 100.103 52.8373 100.007C53.0035 99.911 53.187 99.8486 53.3773 99.8235C53.5676 99.7984 53.761 99.8111 53.9465 99.8607C54.1319 99.9104 54.3057 99.9962 54.458 100.113L56.5878 101.746L61.6211 95.1822C61.7378 95.03 61.8834 94.9022 62.0495 94.8062C62.2156 94.7102 62.399 94.6479 62.5892 94.6228C62.7794 94.5977 62.9727 94.6103 63.158 94.6599C63.3433 94.7095 63.517 94.7951 63.6693 94.9118L63.638 94.9543L63.6701 94.9125C63.9772 95.1485 64.1781 95.4967 64.2288 95.8807C64.2795 96.2647 64.1758 96.6531 63.9405 96.9607L58.0202 104.682C57.8833 104.859 57.7072 105.003 57.5056 105.102C57.3041 105.201 57.0824 105.252 56.8579 105.252Z" fill="#F95738"/>
<path d="M146.276 113.705C154.003 113.705 160.268 107.441 160.268 99.7131C160.268 91.9855 154.003 85.7211 146.276 85.7211C138.548 85.7211 132.284 91.9855 132.284 99.7131C132.284 107.441 138.548 113.705 146.276 113.705Z" fill="white"/>
<path d="M144.889 105.051C144.574 105.051 144.268 104.95 144.016 104.761L144 104.749L140.712 102.231C140.404 101.996 140.203 101.648 140.152 101.264C140.101 100.879 140.205 100.491 140.441 100.183C140.676 99.8757 141.024 99.6744 141.409 99.6235C141.793 99.5727 142.181 99.6765 142.489 99.9122L144.619 101.545L149.652 94.9813C149.769 94.829 149.914 94.7013 150.08 94.6053C150.246 94.5093 150.43 94.447 150.62 94.4219C150.81 94.3968 151.003 94.4094 151.189 94.459C151.374 94.5085 151.548 94.5942 151.7 94.7109L151.669 94.7534L151.701 94.7115C152.008 94.9475 152.209 95.2957 152.26 95.6797C152.31 96.0637 152.207 96.4521 151.971 96.7598L146.051 104.481C145.914 104.659 145.738 104.803 145.536 104.901C145.335 105 145.113 105.051 144.889 105.051Z" fill="#F95738"/>
<path d="M240.841 165.74C241.3 165.237 241.644 164.64 241.848 163.99C242.052 163.34 242.111 162.653 242.021 161.978C241.93 161.303 241.693 160.656 241.326 160.082C240.958 159.509 240.47 159.023 239.894 158.658L232.083 116.948L222.583 120.471L233.248 160.363C232.7 161.371 232.541 162.544 232.801 163.661C233.06 164.778 233.721 165.761 234.656 166.424C235.592 167.087 236.739 167.383 237.879 167.257C239.018 167.131 240.072 166.591 240.841 165.74Z" fill="#A0616A"/>
<path d="M165.036 102.094C165.06 102.353 165.063 102.613 165.045 102.873L183.517 117.09L188.755 114.939L193.034 122.42L184.131 127.129C183.412 127.509 182.589 127.646 181.785 127.519C180.982 127.391 180.241 127.007 179.674 126.423L161.211 107.388C160.234 107.608 159.213 107.526 158.283 107.152C157.354 106.778 156.56 106.129 156.008 105.293C155.456 104.457 155.172 103.473 155.193 102.471C155.214 101.469 155.54 100.498 156.127 99.6859C156.713 98.8738 157.533 98.2595 158.478 97.9249C159.422 97.5902 160.446 97.551 161.413 97.8124C162.38 98.0738 163.245 98.6235 163.892 99.3883C164.539 100.153 164.938 101.097 165.036 102.094Z" fill="#A0616A"/>
<path d="M208.19 239.773H202.873L200.343 223.601L208.191 223.601L208.19 239.773Z" fill="#A0616A"/>
<path d="M209.546 244.927L192.401 244.926V244.709C192.401 243.833 192.574 242.965 192.909 242.156C193.245 241.346 193.736 240.61 194.356 239.991C194.976 239.371 195.711 238.88 196.521 238.544C197.33 238.209 198.198 238.036 199.075 238.036L209.546 238.037L209.546 244.927Z" fill="#2F2E41"/>
<path d="M228.14 239.773H222.823L220.294 223.601L228.142 223.601L228.14 239.773Z" fill="#A0616A"/>
<path d="M229.496 244.927L212.352 244.926V244.709C212.352 243.833 212.524 242.965 212.86 242.156C213.195 241.346 213.687 240.61 214.306 239.991C214.926 239.371 215.662 238.88 216.471 238.544C217.281 238.209 218.149 238.036 219.025 238.036L229.497 238.037L229.496 244.927Z" fill="#2F2E41"/>
<path d="M201.769 236.576C201.283 236.577 200.815 236.396 200.456 236.069C200.097 235.742 199.873 235.293 199.828 234.81L195.195 172.491L195.414 172.474L227.3 169.853L227.308 170.079L229.843 234.636C229.853 234.899 229.81 235.16 229.716 235.405C229.623 235.651 229.481 235.874 229.298 236.063C229.116 236.252 228.898 236.403 228.657 236.505C228.415 236.608 228.155 236.661 227.893 236.661H221.641C221.174 236.663 220.722 236.497 220.368 236.193C220.014 235.889 219.781 235.468 219.712 235.006L211.222 182.855C211.213 182.802 211.185 182.753 211.142 182.719C211.1 182.685 211.046 182.668 210.992 182.672C210.937 182.676 210.886 182.7 210.849 182.74C210.812 182.78 210.791 182.832 210.79 182.887L210.405 234.378C210.401 234.875 210.208 235.352 209.864 235.712C209.521 236.071 209.053 236.286 208.556 236.313L201.874 236.573C201.839 236.575 201.803 236.576 201.769 236.576Z" fill="#2F2E41"/>
<path d="M207.211 93.7343C213.094 93.7343 217.863 88.9652 217.863 83.0821C217.863 77.1991 213.094 72.4299 207.211 72.4299C201.328 72.4299 196.559 77.1991 196.559 83.0821C196.559 88.9652 201.328 93.7343 207.211 93.7343Z" fill="#A0616A"/>
<path d="M209.273 176.466C204.618 176.452 199.984 175.819 195.495 174.583C195.063 174.457 194.688 174.186 194.432 173.816C194.177 173.446 194.056 172.999 194.092 172.55C195.526 150.998 195.863 134.273 192.848 122.701C191.562 117.769 192.146 112.574 194.448 108.449C197.914 102.242 204.283 98.4636 211.077 98.5941C211.401 98.6002 211.729 98.6118 212.06 98.6288C222.371 99.1597 230.405 108.487 229.97 119.421L227.896 171.539C227.888 171.919 227.768 172.289 227.551 172.601C227.334 172.913 227.029 173.154 226.675 173.293C221.112 175.386 215.217 176.461 209.273 176.466Z" fill="#3F3D56"/>
<path d="M194.601 126.703L186.622 116.925C186.395 116.647 186.23 116.323 186.14 115.975C186.049 115.628 186.034 115.265 186.097 114.911C186.159 114.558 186.297 114.222 186.501 113.926C186.705 113.631 186.97 113.382 187.278 113.199L198.087 106.758C199.517 105.604 201.346 105.065 203.173 105.258C205 105.451 206.676 106.36 207.834 107.787C208.991 109.214 209.536 111.042 209.348 112.869C209.16 114.697 208.254 116.375 206.83 117.537L198.383 126.806C198.141 127.072 197.845 127.282 197.514 127.422C197.184 127.563 196.827 127.63 196.468 127.62C196.109 127.611 195.757 127.524 195.434 127.365C195.112 127.207 194.828 126.981 194.601 126.703Z" fill="#3F3D56"/>
<path d="M219.701 125.476C219.373 125.329 219.081 125.113 218.844 124.843C218.607 124.574 218.432 124.256 218.329 123.912L214.737 111.896C213.957 110.232 213.869 108.327 214.492 106.598C215.115 104.869 216.398 103.458 218.06 102.674C219.722 101.891 221.627 101.798 223.357 102.417C225.088 103.035 226.502 104.315 227.29 105.975L234.236 116.466C234.434 116.765 234.566 117.104 234.621 117.458C234.677 117.813 234.655 118.176 234.558 118.521C234.461 118.867 234.29 119.188 234.058 119.462C233.826 119.735 233.537 119.956 233.212 120.108L221.782 125.458C221.457 125.611 221.103 125.691 220.743 125.694C220.384 125.697 220.029 125.623 219.701 125.476Z" fill="#3F3D56"/>
<path d="M212.475 91.8224L204.579 90.0152C203.765 89.8288 202.786 89.4731 202.673 88.6452C202.521 87.5327 204.122 86.7577 203.975 85.6446C203.832 84.5665 202.373 84.4276 201.333 84.1094C200.365 83.7696 199.566 83.0664 199.107 82.1484C198.648 81.2304 198.564 80.1698 198.873 79.1911C197.748 80.7767 195.177 80.9125 193.718 79.6279C192.259 78.3432 191.979 76.0124 192.855 74.2769C193.329 73.4244 193.997 72.6958 194.805 72.1501C195.613 71.6044 196.538 71.2572 197.506 71.1367C199.452 70.9161 201.419 71.2828 203.154 72.1897C203.27 70.9608 204.804 70.4626 206.038 70.4517C208.602 70.4815 211.093 71.3099 213.164 72.8216C215.235 74.3332 216.784 76.4529 217.594 78.8856C219.108 83.7657 218.095 89.1151 213.858 91.9704L212.475 91.8224Z" fill="#2F2E41"/>
<path d="M292.007 245.042H126.766C126.651 245.042 126.541 244.997 126.459 244.915C126.378 244.834 126.332 244.724 126.332 244.609C126.332 244.494 126.378 244.383 126.459 244.302C126.541 244.221 126.651 244.175 126.766 244.175H292.007C292.122 244.175 292.232 244.221 292.314 244.302C292.395 244.383 292.441 244.494 292.441 244.609C292.441 244.724 292.395 244.834 292.314 244.915C292.232 244.997 292.122 245.042 292.007 245.042Z" fill="#3F3D56"/>
</g>
<defs>
<clipPath id="clip0_31_345">
<rect width="370" height="245.042" fill="white"/>
</clipPath>
</defs>
</svg>
