<svg width="302" height="229" viewBox="0 0 302 229" fill="none" xmlns="http://www.w3.org/2000/svg">
<g clip-path="url(#clip0_31_317)">
<path d="M124.48 158.09C124.48 165.965 118.365 172.348 110.822 172.348C103.278 172.348 97.1628 165.965 97.1628 158.09C97.1628 157.911 97.1656 157.734 97.1729 157.557C97.3114 149.684 103.54 143.421 111.082 143.568C118.624 143.715 124.624 150.217 124.483 158.09H124.48Z" fill="#F95738"/>
<path d="M106.012 164.422L102.078 159.177L103.009 158.477L106.214 162.751L118.832 152.428L119.57 153.33L106.012 164.422Z" fill="white"/>
<path d="M302 227.352H0V228.17H302V227.352Z" fill="#E6E6E6"/>
<path d="M198.842 80.1644C199.125 80.2935 199.397 80.4451 199.655 80.6177L225.491 69.591L226.413 62.7853L236.736 62.7219L236.126 78.3321L202.026 87.3513C201.954 87.5881 201.868 87.8204 201.768 88.0468C201.274 89.0988 200.482 89.9816 199.488 90.5844C198.495 91.1873 197.346 91.4832 196.185 91.4351C195.024 91.3869 193.904 90.9969 192.964 90.3139C192.024 89.6309 191.307 88.6855 190.902 87.5963C190.498 86.5071 190.425 85.3227 190.691 84.1919C190.958 83.0611 191.553 82.0342 192.401 81.2403C193.249 80.4464 194.313 79.9209 195.459 79.7297C196.605 79.5385 197.782 79.6901 198.842 80.1656L198.842 80.1644Z" fill="#A0616A"/>
<path d="M240.49 221.612H233.428L230.069 194.373H240.491L240.49 221.612Z" fill="#A0616A"/>
<path d="M228.384 219.595H242.004V228.167H219.809C219.809 225.893 220.712 223.712 222.321 222.104C223.929 220.496 226.11 219.592 228.384 219.592V219.595Z" fill="#2F2E41"/>
<path d="M267.955 219.617L260.928 220.308L254.914 193.53L265.287 192.511L267.955 219.617Z" fill="#A0616A"/>
<path d="M255.706 218.797L269.257 217.462L270.097 225.995L248.014 228.17C247.791 225.907 248.476 223.648 249.919 221.891C251.361 220.133 253.443 219.02 255.706 218.797Z" fill="#2F2E41"/>
<path d="M242.456 33.8936C250.27 33.8936 256.604 27.5595 256.604 19.746C256.604 11.9324 250.27 5.59833 242.456 5.59833C234.643 5.59833 228.309 11.9324 228.309 19.746C228.309 27.5595 234.643 33.8936 242.456 33.8936Z" fill="#A0616A"/>
<path d="M231.85 216.104C231.243 216.105 230.655 215.892 230.19 215.502C229.725 215.112 229.412 214.57 229.307 213.972C225.654 193.685 213.704 127.338 213.418 125.499C213.411 125.457 213.408 125.414 213.408 125.371V120.424C213.408 120.243 213.464 120.068 213.569 119.921L215.147 117.712C215.222 117.606 215.321 117.518 215.435 117.456C215.549 117.393 215.676 117.358 215.806 117.352C224.806 116.93 254.276 115.694 255.699 117.472C257.129 119.258 256.621 124.677 256.506 125.744L256.511 125.855L269.752 210.53C269.856 211.206 269.689 211.895 269.289 212.448C268.888 213.002 268.285 213.375 267.611 213.488L259.342 214.85C258.726 214.949 258.095 214.824 257.564 214.497C257.033 214.17 256.636 213.663 256.447 213.069C253.89 204.896 245.313 177.402 242.341 166.764C242.325 166.693 242.283 166.632 242.224 166.591C242.164 166.55 242.092 166.534 242.021 166.544C241.949 166.554 241.885 166.591 241.839 166.647C241.794 166.703 241.771 166.774 241.776 166.845C241.924 176.987 242.283 202.86 242.41 211.797L242.423 212.759C242.428 213.411 242.189 214.041 241.752 214.525C241.316 215.008 240.714 215.311 240.065 215.372L232.091 216.095C232.011 216.102 231.931 216.105 231.85 216.104Z" fill="#2F2E41"/>
<path d="M233.477 39.4568C231.008 40.9246 229.531 43.6214 228.683 46.3705C227.114 51.4516 226.169 56.705 225.87 62.0145L224.974 77.9119L213.882 120.06C223.496 128.194 229.04 126.345 241.981 119.692C254.922 113.039 256.4 121.91 256.4 121.91L258.987 86.0475L262.684 46.8593C261.854 45.8601 260.915 44.957 259.883 44.1671C256.466 41.5093 252.491 39.6618 248.256 38.7638C244.021 37.8657 239.637 37.9406 235.436 38.9827L233.477 39.4568Z" fill="#F95738"/>
<path d="M229.875 88.6763C230.173 88.7879 230.462 88.9228 230.739 89.0797L256.286 76.2919L256.71 69.3647L267.247 68.6382L267.812 84.4291L233.673 95.7201C233.395 96.9164 232.758 97.9995 231.849 98.8254C230.94 99.6513 229.801 100.181 228.583 100.343C227.366 100.506 226.128 100.294 225.034 99.7359C223.94 99.1776 223.041 98.2994 222.459 97.2182C221.876 96.1369 221.636 94.9039 221.771 93.6831C221.907 92.4622 222.41 91.3115 223.215 90.3839C224.021 89.4564 225.089 88.796 226.279 88.4906C227.469 88.1852 228.723 88.2492 229.876 88.6743L229.875 88.6763Z" fill="#A0616A"/>
<path d="M262.5 47.0357C268.785 49.2538 269.893 73.2876 269.893 73.2876C262.499 69.2208 253.625 75.8755 253.625 75.8755C253.625 75.8755 251.777 69.5898 249.559 61.4566C248.889 59.1688 248.809 56.7486 249.326 54.4214C249.843 52.0943 250.94 49.9358 252.516 48.1468C252.516 48.1468 256.214 44.8164 262.5 47.0357Z" fill="#F95738"/>
<path d="M255.139 23.4863C253.377 22.0761 250.972 24.6383 250.972 24.6383L249.562 11.9499C249.562 11.9499 240.749 13.0058 235.107 11.5972C229.465 10.1887 228.585 16.7109 228.585 16.7109C228.294 14.0769 228.235 11.4225 228.408 8.7782C228.761 5.60528 233.344 2.43236 241.452 0.316943C249.561 -1.79847 253.791 7.36805 253.791 7.36805C259.435 10.1863 256.904 24.8981 255.139 23.4863Z" fill="#2F2E41"/>
<path d="M65.9168 18.6349C65.58 18.6355 65.2573 18.7697 65.0194 19.008C64.7816 19.2463 64.6479 19.5693 64.6479 19.906C64.6479 20.2427 64.7816 20.5657 65.0194 20.804C65.2573 21.0423 65.58 21.1765 65.9168 21.1771H158.723C159.06 21.1765 159.382 21.0423 159.62 20.804C159.858 20.5657 159.992 20.2427 159.992 19.906C159.992 19.5693 159.858 19.2463 159.62 19.008C159.382 18.7697 159.06 18.6355 158.723 18.6349H65.9168Z" fill="#CCCCCC"/>
<path d="M65.9168 26.2616C65.58 26.2614 65.2568 26.3948 65.0184 26.6326C64.7799 26.8705 64.6455 27.1932 64.6448 27.53C64.6441 27.8668 64.7771 28.1902 65.0146 28.429C65.252 28.6678 65.5746 28.8026 65.9114 28.8038H124.584C124.751 28.8038 124.917 28.7709 125.071 28.7071C125.225 28.6432 125.365 28.5496 125.483 28.4315C125.601 28.3135 125.695 28.1734 125.759 28.0191C125.823 27.8649 125.856 27.6996 125.856 27.5327C125.856 27.3658 125.823 27.2005 125.759 27.0463C125.695 26.8921 125.601 26.7519 125.483 26.6339C125.365 26.5159 125.225 26.4222 125.071 26.3584C124.917 26.2945 124.751 26.2616 124.584 26.2616H65.9168Z" fill="#CCCCCC"/>
<path d="M157.56 8.91797C157.56 12.0002 155.166 14.4988 152.214 14.4988C149.261 14.4988 146.868 12.0002 146.868 8.91797C146.868 8.8481 146.869 8.77873 146.872 8.70945C146.926 5.62783 149.364 3.17641 152.316 3.23396C155.268 3.29152 157.616 5.83635 157.561 8.91797H157.56Z" fill="#F95738"/>
<path d="M150.331 11.3964L148.791 9.34334L149.156 9.06966L150.41 10.7423L155.349 6.7019L155.638 7.0548L150.331 11.3964Z" fill="white"/>
<path d="M65.9168 65.2714C65.58 65.272 65.2573 65.4062 65.0194 65.6445C64.7816 65.8828 64.6479 66.2057 64.6479 66.5425C64.6479 66.8792 64.7816 67.2022 65.0194 67.4405C65.2573 67.6788 65.58 67.813 65.9168 67.8136H158.723C159.06 67.813 159.382 67.6788 159.62 67.4405C159.858 67.2022 159.992 66.8792 159.992 66.5425C159.992 66.2057 159.858 65.8828 159.62 65.6445C159.382 65.4062 159.06 65.272 158.723 65.2714H65.9168Z" fill="#CCCCCC"/>
<path d="M65.9168 72.8981C65.58 72.8978 65.2568 73.0313 65.0184 73.2691C64.7799 73.5069 64.6455 73.8297 64.6448 74.1665C64.6441 74.5033 64.7771 74.8266 65.0146 75.0655C65.252 75.3043 65.5746 75.4391 65.9114 75.4403H124.584C124.922 75.4403 125.245 75.3064 125.483 75.068C125.722 74.8296 125.856 74.5063 125.856 74.1692C125.856 73.8321 125.722 73.5088 125.483 73.2704C125.245 73.032 124.922 72.8981 124.584 72.8981H65.9168Z" fill="#CCCCCC"/>
<path d="M157.151 55.5545C157.151 58.6367 154.757 61.1353 151.805 61.1353C148.852 61.1353 146.458 58.6367 146.458 55.5545C146.458 55.4846 146.46 55.4153 146.462 55.346C146.517 52.2644 148.954 49.8129 151.906 49.8705C154.859 49.9281 157.207 52.4729 157.152 55.5545H157.151Z" fill="#F95738"/>
<path d="M149.922 58.0329L148.382 55.9798L148.747 55.7061L150.001 57.3787L154.94 53.3384L155.229 53.6913L149.922 58.0329Z" fill="white"/>
<path d="M65.9168 111.908C65.58 111.909 65.2573 112.043 65.0194 112.281C64.7816 112.519 64.6479 112.842 64.6479 113.179C64.6479 113.516 64.7816 113.839 65.0194 114.077C65.2573 114.315 65.58 114.45 65.9168 114.45H158.723C159.06 114.45 159.382 114.315 159.62 114.077C159.858 113.839 159.992 113.516 159.992 113.179C159.992 112.842 159.858 112.519 159.62 112.281C159.382 112.043 159.06 111.909 158.723 111.908H65.9168Z" fill="#CCCCCC"/>
<path d="M65.9168 119.534C65.58 119.534 65.2568 119.668 65.0184 119.905C64.7799 120.143 64.6455 120.466 64.6448 120.803C64.6441 121.14 64.7771 121.463 65.0146 121.702C65.252 121.941 65.5746 122.075 65.9114 122.077H124.584C124.922 122.077 125.245 121.943 125.483 121.704C125.722 121.466 125.856 121.143 125.856 120.806C125.856 120.468 125.722 120.145 125.483 119.907C125.245 119.668 124.922 119.534 124.584 119.534H65.9168Z" fill="#CCCCCC"/>
<path d="M157.151 102.191C157.151 105.273 154.757 107.772 151.805 107.772C148.852 107.772 146.458 105.273 146.458 102.191C146.458 102.121 146.46 102.052 146.462 101.982C146.517 98.9008 148.954 96.4494 151.906 96.507C154.859 96.5645 157.207 99.1094 157.152 102.191H157.151Z" fill="#F95738"/>
<path d="M149.922 104.669L148.382 102.616L148.747 102.343L150.001 104.015L154.94 99.9749L155.229 100.328L149.922 104.669Z" fill="white"/>
</g>
<defs>
<clipPath id="clip0_31_317">
<rect width="302" height="228.17" fill="white"/>
</clipPath>
</defs>
</svg>
