<svg width="318" height="256" viewBox="0 0 318 256" fill="none" xmlns="http://www.w3.org/2000/svg">
<path d="M180.883 226.477C178.688 223.403 175.716 221.153 171.979 220.311C168.721 219.577 165.371 219.702 162.058 219.728L120.179 220.051C116.593 220.079 113.154 223.186 113.32 226.91C113.486 230.602 116.335 233.798 120.179 233.769C132.447 233.674 144.715 233.58 156.982 233.485C159.874 233.463 162.768 233.411 165.661 233.42C166.31 233.422 166.957 233.456 167.606 233.464C167.763 233.466 167.876 233.464 167.957 233.461C167.977 233.467 167.994 233.472 168.02 233.48C168.358 233.573 168.706 233.637 169.046 233.725C168.927 233.728 169.267 233.941 169.438 234.013C169.461 234.059 169.511 234.141 169.595 234.268C169.711 234.486 170.057 235.15 170.071 235.129C170.589 236.441 171.017 237.786 171.351 239.156C172.148 242.177 172.323 242.808 172.438 245.643C172.583 249.223 175.489 252.672 179.297 252.502C182.889 252.341 186.312 249.483 186.156 245.643C185.894 239.172 184.758 231.904 180.883 226.477Z" fill="#E6E6E6"/>
<path d="M122.641 241.955C121.854 237.188 121.083 232.418 120.281 227.654C119.467 222.821 117.806 218.396 114.045 215.224C113.04 214.376 111.998 213.585 110.951 212.796C110.583 212.519 110.216 212.241 109.852 211.958C109.831 211.941 109.817 211.93 109.798 211.915C109.758 211.881 109.71 211.84 109.645 211.786C108.078 210.459 106.563 209.073 105.12 207.6C103.839 206.292 102.614 204.928 101.445 203.509C101.152 203.154 100.864 202.796 100.579 202.435C100.53 202.373 100.267 202.032 100.093 201.81C99.9312 201.587 99.6358 201.185 99.5862 201.115C99.2536 200.645 98.927 200.17 98.6062 199.691C96.4216 196.418 94.5299 192.959 92.9531 189.353C92.7968 188.996 92.6441 188.636 92.4951 188.274C92.4552 188.164 92.4035 188.022 92.3348 187.833C92.0171 186.959 91.6999 186.087 91.4094 185.202C90.7921 183.324 90.2614 181.419 89.8173 179.485C89.5978 178.531 89.4001 177.571 89.2243 176.607C89.1337 176.111 89.0489 175.614 88.97 175.116C88.957 175.033 88.88 174.496 88.8346 174.192C88.8011 173.887 88.7387 173.347 88.7303 173.264C88.6801 172.762 88.6355 172.259 88.5966 171.756C88.5089 170.625 88.4496 169.491 88.4187 168.355C88.3659 166.337 88.4021 164.319 88.5271 162.302C88.5983 161.168 88.6996 160.037 88.8244 158.908C88.8319 158.839 88.8377 158.784 88.8432 158.734C88.8507 158.684 88.8595 158.627 88.87 158.555C88.9623 157.932 89.0594 157.309 89.1681 156.688C89.5795 154.33 90.1145 151.996 90.771 149.694C91.0819 148.606 91.4195 147.526 91.7839 146.456C91.9463 145.98 92.1139 145.507 92.2867 145.035C92.2754 145.065 92.7935 143.742 92.8004 143.698C94.8559 138.841 98.218 134.414 98.2226 128.897C98.2257 125.162 95.0656 121.583 91.3636 121.756C89.5179 121.825 87.7712 122.609 86.4917 123.941C85.2122 125.273 84.4998 127.05 84.5046 128.897C84.5046 128.981 84.5042 129.052 84.504 129.122C84.4695 129.238 84.4406 129.335 84.4146 129.421C84.0138 130.292 83.5227 131.12 83.0827 131.969C81.8779 134.294 80.8495 136.695 79.8726 139.132C78.2734 143.099 77.0492 147.208 76.2162 151.404C74.4057 160.598 74.2651 170.042 75.8014 179.286C78.4608 195.496 87.2308 211.013 99.4232 221.443C100.481 222.348 101.565 223.222 102.659 224.079C103.112 224.434 103.569 224.782 104.027 225.128C104.244 225.291 105.143 226 104.747 225.656C105.597 226.382 105.955 226.747 106.173 227.281C106.205 227.404 106.248 227.571 106.306 227.8C106.46 228.403 106.606 229.004 106.728 229.614C107.789 234.952 108.527 240.379 109.413 245.752C110.022 249.443 114.567 251.845 117.851 250.739C121.673 249.451 123.294 245.91 122.641 241.955Z" fill="#E6E6E6"/>
<path d="M181.577 255.8C178.697 255.807 175.931 254.672 173.886 252.643C171.842 250.613 170.685 247.856 170.671 244.975V237.151C162.48 238.068 134.429 237.856 126.388 236.564V244.662C126.367 247.541 125.208 250.294 123.165 252.321C121.122 254.349 118.361 255.487 115.482 255.487C112.604 255.487 109.843 254.349 107.8 252.321C105.757 250.294 104.598 247.541 104.577 244.662V228.762C93.6862 222.712 84.6075 213.865 78.2775 203.135C71.9474 192.405 68.5953 180.18 68.5671 167.722C68.5671 146.361 78.2481 126.434 95.1279 113.05C106.103 104.319 119.438 99.0683 133.419 97.972C135.317 97.8232 137.226 97.7479 139.094 97.7479C145.676 97.7479 175.369 98.7645 182.819 100.908L199.807 84.0513C200.057 83.8001 200.376 83.629 200.723 83.5598C201.071 83.4906 201.431 83.5263 201.758 83.6626C202.087 83.7937 202.369 84.0213 202.567 84.3156C202.765 84.6099 202.869 84.9571 202.866 85.3116V87.9917L206.173 84.7157C206.423 84.4642 206.741 84.2929 207.089 84.2235C207.436 84.1542 207.796 84.19 208.122 84.3264C208.452 84.4574 208.735 84.685 208.933 84.9794C209.13 85.2738 209.235 85.6212 209.232 85.976V115.926C217.756 123.611 224.253 133.28 228.147 144.076C232.041 154.872 233.211 166.462 231.555 177.819C229.898 189.175 225.466 199.948 218.651 209.182C211.835 218.416 202.847 225.826 192.483 230.756V244.975C192.469 247.856 191.313 250.613 189.268 252.643C187.224 254.672 184.458 255.807 181.577 255.8ZM171.529 236.179V244.975C171.55 247.626 172.619 250.161 174.501 252.028C176.383 253.895 178.926 254.942 181.577 254.942C184.228 254.942 186.771 253.895 188.654 252.028C190.536 250.161 191.604 247.626 191.625 244.975V230.215L191.87 230.098C203.499 224.58 213.372 215.947 220.391 205.157C229.335 191.388 233.055 174.872 230.877 158.598C228.699 142.325 220.767 127.368 208.517 116.436L208.374 116.308V85.976C208.377 85.7917 208.324 85.6109 208.221 85.4579C208.118 85.3049 207.971 85.1872 207.799 85.1205C207.628 85.0475 207.439 85.0277 207.257 85.0639C207.075 85.1001 206.908 85.1905 206.778 85.3233L202.008 90.0476V85.3116C202.011 85.1273 201.958 84.9465 201.855 84.7935C201.752 84.6406 201.605 84.5228 201.433 84.4561C201.262 84.3832 201.073 84.3637 200.89 84.4001C200.708 84.4366 200.541 84.5273 200.411 84.6604L183.059 101.878L182.812 101.801C175.887 99.633 145.726 98.6052 139.094 98.6052C137.248 98.6052 135.362 98.6797 133.486 98.8269C119.675 99.9097 106.502 105.097 95.6607 113.722C78.9872 126.942 69.4244 146.624 69.4244 167.722C69.4529 180.07 72.7871 192.185 79.0806 202.809C85.3741 213.432 94.3973 222.177 105.213 228.134L105.434 228.257V244.662C105.456 247.313 106.525 249.847 108.407 251.714C110.289 253.58 112.832 254.627 115.482 254.627C118.133 254.627 120.676 253.58 122.558 251.714C124.44 249.847 125.509 247.313 125.531 244.662V235.538L126.039 235.633C133.265 236.993 163.691 237.207 171.044 236.242L171.529 236.179Z" fill="#3F3D56"/>
<path d="M123.46 51.0639L75.9877 65.3305C74.4777 65.7861 73.2104 66.8224 72.4641 68.2119C71.7178 69.6013 71.5535 71.2301 72.0074 72.7406C72.4613 74.251 73.4962 75.5196 74.8848 76.2674C76.2733 77.0153 77.902 77.1814 79.413 76.7292L120.957 64.2416L121.827 63.9801C122.003 59.4955 123.22 55.1132 125.381 51.1796C125.11 51.0576 124.82 50.9822 124.523 50.9567C124.165 50.922 123.804 50.9584 123.46 51.0639Z" fill="#F95738"/>
<path d="M78.592 79.771C77.9618 79.7695 77.348 79.5699 76.8374 79.2006C76.3268 78.8312 75.9452 78.3108 75.7464 77.7128L72.7779 68.755C72.6539 68.3809 72.6048 67.986 72.6334 67.593C72.662 67.1999 72.7678 66.8164 72.9447 66.4642C73.1216 66.112 73.3661 65.7982 73.6643 65.5405C73.9625 65.2828 74.3085 65.0864 74.6826 64.9625L113.321 52.1577C113.695 52.0337 114.089 51.9846 114.482 52.0132C114.875 52.0417 115.259 52.1475 115.611 52.3243C115.963 52.5011 116.277 52.7456 116.535 53.0437C116.793 53.3418 116.989 53.6878 117.113 54.0618L120.082 63.0196C120.328 63.7564 120.279 64.5604 119.943 65.2613C119.608 65.9622 119.013 66.5049 118.284 66.7746C118.248 66.788 118.212 66.8006 118.176 66.8125L79.5389 79.6169C79.2335 79.7187 78.9138 79.7707 78.592 79.771Z" fill="#2F2E41"/>
<path d="M150.952 35.1554C143.154 35.1584 135.662 38.1957 130.064 43.6244C124.466 49.0531 121.2 56.4472 120.957 64.2417C120.948 64.546 120.944 64.8547 120.944 65.1633C120.944 71.0984 122.704 76.9001 126.001 81.8349C129.298 86.7696 133.985 90.6158 139.468 92.8871C144.951 95.1583 150.985 95.7526 156.806 94.5947C162.627 93.4368 167.974 90.5789 172.171 86.3822C176.367 82.1855 179.225 76.8386 180.383 71.0176C181.541 65.1966 180.947 59.163 178.676 53.6798C176.404 48.1966 172.558 43.51 167.623 40.2126C162.689 36.9153 156.887 35.1554 150.952 35.1554ZM150.952 94.3139C143.223 94.3059 135.813 91.2321 130.348 85.767C124.883 80.302 121.809 72.8921 121.801 65.1633C121.801 64.7647 121.81 64.3703 121.827 63.9802C122.059 58.27 123.965 52.754 127.307 48.1182C130.648 43.4823 135.279 39.931 140.623 37.9059C145.967 35.8809 151.789 35.4713 157.364 36.7283C162.939 37.9852 168.021 40.8531 171.979 44.9755C175.937 49.0978 178.596 54.2927 179.626 59.9141C180.655 65.5356 180.009 71.3355 177.769 76.5929C175.528 81.8502 171.791 86.3329 167.023 89.4836C162.256 92.6344 156.667 94.3141 150.952 94.3139Z" fill="#3F3D56"/>
<path d="M176.244 65.1634C176.244 71.8714 173.58 78.3046 168.836 83.0478C164.093 87.7911 157.66 90.4558 150.952 90.4558C144.244 90.4558 137.811 87.7911 133.067 83.0478C128.324 78.3046 125.659 71.8714 125.659 65.1634C125.659 64.3618 125.698 63.573 125.771 62.7928C126.38 56.3189 129.46 50.3285 134.37 46.0653C139.28 41.8022 145.643 39.5939 152.138 39.899C158.634 40.204 164.762 42.9991 169.251 47.7036C173.74 52.4082 176.244 58.6609 176.244 65.1634Z" fill="#E6E6E6"/>
<path d="M158.484 66.8437C157.871 66.0377 157.064 65.3993 156.139 64.9875C154.998 64.5066 153.819 64.1195 152.615 63.8301V56.9454C154.466 57.2245 156.202 58.0159 157.626 59.2303L159.024 56.2509C158.22 55.5349 157.297 54.9647 156.297 54.5662C155.189 54.1174 154.025 53.8189 152.838 53.6788V50.1893H149.601V53.7131C148.352 53.8535 147.146 54.2583 146.065 54.9006C145.088 55.4787 144.266 56.2847 143.668 57.2498C143.098 58.1916 142.803 59.274 142.815 60.3749C142.76 61.5679 143.105 62.7451 143.797 63.7186C144.434 64.5615 145.275 65.2284 146.24 65.6563C147.4 66.1514 148.599 66.5486 149.824 66.8437V73.4412C147.64 73.2765 145.559 72.4461 143.861 71.062L142.464 74.0457C143.413 74.8304 144.493 75.4427 145.653 75.8547C146.925 76.3098 148.254 76.5868 149.601 76.6778V80.1373H152.838V76.6135C154.636 76.417 156.322 75.644 157.643 74.41C158.226 73.8517 158.686 73.1786 158.994 72.4333C159.302 71.688 159.453 70.8868 159.435 70.0803C159.489 68.9254 159.154 67.7857 158.484 66.8437ZM149.824 63.1013C149.036 62.8622 148.303 62.4688 147.668 61.9439C147.416 61.72 147.218 61.4433 147.086 61.1335C146.954 60.8236 146.892 60.4885 146.905 60.152C146.882 59.3884 147.162 58.6468 147.685 58.09C148.265 57.5058 149.013 57.1176 149.824 56.9797V63.1013ZM154.647 72.2237C154.1 72.7846 153.388 73.1557 152.615 73.2826V67.6068C153.354 67.805 154.045 68.1506 154.647 68.6228C154.875 68.8177 155.057 69.0615 155.177 69.3361C155.298 69.6107 155.356 69.909 155.346 70.2089C155.376 70.9446 155.126 71.6644 154.647 72.2237Z" fill="#F95738"/>
<path d="M79.9697 116.076C79.307 116.075 78.6632 115.855 78.1381 115.451C77.613 115.046 77.2359 114.48 77.0654 113.84L75.4492 107.723C75.2469 106.954 75.3578 106.136 75.7576 105.449C76.1574 104.761 76.8135 104.261 77.5819 104.057L128.57 90.5833C129.339 90.3825 130.157 90.4946 130.844 90.8952C131.531 91.2957 132.031 91.9519 132.236 92.7204L133.605 97.9032L133.348 97.923C120.271 98.9398 107.759 103.681 97.2927 111.586L97.2183 111.622L80.731 115.977C80.4826 116.043 80.2267 116.076 79.9697 116.076Z" fill="#2F2E41"/>
<path d="M71.5252 146.292C65.544 145.409 59.8237 143.246 54.7541 139.951C52.2425 138.32 49.9174 136.418 47.8206 134.28C45.7509 132.169 43.771 129.77 42.7459 126.959C41.7596 124.358 41.8104 121.477 42.8879 118.913C43.9506 116.364 45.9808 114.34 48.5331 113.286C51.1008 112.262 54.203 112.152 56.7019 113.274C57.8927 113.796 58.9231 114.625 59.6874 115.677C60.0427 116.162 60.3057 116.708 60.4635 117.288C60.6098 117.814 60.6231 118.367 60.5022 118.899C60.3557 119.431 60.0972 119.924 59.7443 120.348C59.3913 120.771 58.952 121.113 58.4557 121.353C57.3635 121.913 56.18 122.274 54.961 122.419C53.7349 122.586 51.9736 122.738 50.988 121.754C50.7851 121.559 50.6255 121.324 50.5196 121.063C50.4455 120.864 50.4201 120.649 50.4457 120.438C50.4313 120.531 50.5051 120.236 50.5009 120.247C50.4853 120.291 50.4178 120.398 50.5138 120.234C50.5438 120.18 50.5772 120.128 50.6137 120.078C50.5812 120.121 50.5096 120.191 50.6374 120.07C50.743 119.955 50.8787 119.871 51.0293 119.828C51.0886 119.811 51.1488 119.797 51.2083 119.781C51.3596 119.74 51.0576 119.783 51.2123 119.778C51.272 119.776 51.3324 119.778 51.3919 119.775C51.5437 119.768 51.2422 119.734 51.3877 119.77C51.4441 119.785 51.5001 119.798 51.5557 119.816C51.6766 119.854 51.4701 119.727 51.552 119.822C51.648 119.933 51.4512 119.714 51.5603 119.822C51.6146 119.875 51.6658 119.931 51.7137 119.991C51.9029 120.178 52.1582 120.282 52.4242 120.282C52.6902 120.282 52.9455 120.178 53.1348 119.991C53.3176 119.799 53.4196 119.545 53.4196 119.28C53.4196 119.015 53.3176 118.761 53.1348 118.57C52.1439 117.341 50.1867 117.645 49.1843 118.683C47.906 120.007 48.4122 122.105 49.6557 123.26C51.0633 124.568 53.057 124.659 54.8678 124.44C56.398 124.293 57.8893 123.872 59.27 123.196C60.6418 122.522 61.7148 121.363 62.2811 119.943C62.5367 119.185 62.6286 118.382 62.5505 117.586C62.4724 116.79 62.2262 116.02 61.8282 115.326C60.2295 112.321 56.9191 110.78 53.647 110.513C51.9624 110.381 50.2683 110.584 48.6628 111.111C47.0573 111.639 45.5723 112.479 44.2937 113.583C41.8291 115.802 40.3115 118.883 40.0547 122.189C39.7691 125.617 41.099 128.946 43.038 131.712C45.0679 134.523 47.4903 137.028 50.2311 139.151C55.5894 143.429 61.8747 146.393 68.584 147.807C69.382 147.972 70.1843 148.113 70.9909 148.23C71.2476 148.292 71.5183 148.254 71.7479 148.124C71.9776 147.994 72.1489 147.781 72.227 147.528C72.2959 147.271 72.2609 146.998 72.1296 146.766C71.9982 146.535 71.7811 146.365 71.5252 146.292Z" fill="#3F3D56"/>
<path d="M167.287 102.619C158.524 102.496 149.788 102.718 141.08 103.287C138.104 103.481 135.529 104.533 135.529 106.301C135.529 107.78 138.083 109.511 141.08 109.316C149.784 108.747 158.519 108.525 167.287 108.649C174.435 108.749 174.431 102.72 167.287 102.619Z" fill="#CCCCCC"/>
<path d="M154.335 108.35C153.388 108.35 131.141 108.314 131.141 105.241C131.141 102.169 153.388 102.133 154.335 102.133C155.282 102.133 177.529 102.169 177.529 105.241C177.529 108.314 155.282 108.35 154.335 108.35ZM132.011 105.241C132.619 106.173 140.797 107.493 154.335 107.493C167.873 107.493 176.05 106.173 176.659 105.241C176.051 104.31 167.873 102.991 154.335 102.991C140.797 102.991 132.619 104.31 132.011 105.241Z" fill="#3F3D56"/>
<path d="M224.92 189.136C229.844 188.999 235.974 188.828 240.696 185.379C242.102 184.309 243.257 182.946 244.08 181.383C244.904 179.82 245.376 178.096 245.463 176.332C245.559 173.608 244.575 171.23 242.691 169.638C240.225 167.554 236.624 167.066 232.743 168.206L236.764 138.821L233.812 138.416L229.085 172.963L231.55 171.832C234.408 170.521 238.331 169.854 240.768 171.914C241.367 172.452 241.833 173.122 242.131 173.87C242.429 174.618 242.55 175.425 242.485 176.227C242.413 177.54 242.059 178.822 241.447 179.986C240.835 181.15 239.979 182.169 238.938 182.972C235.263 185.657 230.378 186.003 224.837 186.158L224.92 189.136Z" fill="#3F3D56"/>
<path d="M216.758 141.355H200.711V144.334H216.758V141.355Z" fill="#3F3D56"/>
<path d="M87.231 129.779C86.5167 129.777 85.8266 129.52 85.2843 129.055C84.7419 128.591 84.3828 127.948 84.2713 127.242L83.2918 120.991C83.1695 120.205 83.364 119.403 83.8327 118.76C84.3015 118.117 85.0061 117.686 85.792 117.562L137.891 109.399C138.677 109.277 139.479 109.471 140.122 109.94C140.765 110.409 141.196 111.113 141.32 111.899L142.299 118.15C142.422 118.936 142.227 119.739 141.758 120.382C141.29 121.025 140.585 121.455 139.799 121.579L87.7004 129.742C87.5451 129.767 87.3882 129.779 87.231 129.779Z" fill="#2F2E41"/>
<path d="M65.6701 56.5242C77.7446 56.5242 87.533 46.7358 87.533 34.6613C87.533 22.5867 77.7446 12.7983 65.6701 12.7983C53.5955 12.7983 43.8071 22.5867 43.8071 34.6613C43.8071 46.7358 53.5955 56.5242 65.6701 56.5242Z" fill="#F95738"/>
<path d="M78.0485 40.3182C78.7472 40.0738 79.3855 39.6826 79.9205 39.171C80.2744 38.8062 80.5443 38.3684 80.7113 37.8883C80.8782 37.4083 80.9382 36.8975 80.887 36.3918C80.8573 36.0314 80.7446 35.6827 80.5578 35.373C80.371 35.0634 80.1151 34.8011 79.8101 34.6067C79.0189 34.1201 77.9734 34.1385 76.9178 34.6278L76.796 26.0936L75.9388 26.1058L76.082 36.1387L76.7345 35.7107C77.4913 35.2152 78.5786 34.8558 79.3609 35.337C79.5544 35.4644 79.7159 35.6347 79.8329 35.8347C79.9498 36.0347 80.0191 36.2589 80.0352 36.49C80.0713 36.8667 80.0258 37.2468 79.9018 37.6044C79.7778 37.9619 79.5782 38.2886 79.3166 38.5621C78.3873 39.4843 77.0117 39.7933 75.4417 40.0759L75.5936 40.9196C76.4282 40.7928 77.2498 40.5916 78.0485 40.3182Z" fill="#2F2E41"/>
<path d="M85.6242 25.4945L81.0586 26.1859L81.187 27.0335L85.7525 26.3421L85.6242 25.4945Z" fill="#2F2E41"/>
<path d="M71.2131 27.6766L66.6475 28.368L66.7758 29.2156L71.3414 28.5242L71.2131 27.6766Z" fill="#2F2E41"/>
<path d="M80.1179 129.397C79.3316 129.395 78.5645 129.154 77.9186 128.706C77.2727 128.257 76.7787 127.623 76.5022 126.887L61.4283 86.5181C59.5859 81.5671 59.7826 76.0875 61.9753 71.2814C64.1681 66.4753 68.1777 62.7352 73.1246 60.8818L85.3814 56.3051C85.8554 56.1269 86.3599 56.0442 86.8659 56.0618C87.3719 56.0793 87.8695 56.1968 88.3299 56.4074C88.7893 56.6126 89.2031 56.9073 89.5472 57.2743C89.8914 57.6413 90.1589 58.0732 90.3342 58.5448L118.257 111.266C118.439 111.741 118.524 112.248 118.509 112.757C118.494 113.265 118.378 113.766 118.168 114.229C117.959 114.693 117.66 115.111 117.288 115.458C116.917 115.806 116.48 116.077 116.004 116.255L81.4662 129.152C81.0351 129.313 80.5784 129.396 80.1179 129.397Z" fill="#2F2E41"/>
<path d="M81.6628 57.6934L109.368 94.7428L90.6212 58.0823C90.4664 57.6546 90.2288 57.2615 89.9221 56.9256C89.6153 56.5897 89.2453 56.3175 88.8334 56.1246C88.4214 55.9317 87.9754 55.8218 87.521 55.8013C87.0665 55.7807 86.6125 55.8499 86.1848 56.0049L81.6628 57.6934Z" fill="#E6E6E6"/>
<path d="M125.531 85.8303L76.0628 82.6439C75.2831 82.5936 74.5209 82.3903 73.8197 82.0455C73.1186 81.7007 72.4922 81.2212 71.9763 80.6344C71.4605 80.0475 71.0653 79.3648 70.8133 78.6252C70.5613 77.8856 70.4574 77.1036 70.5077 76.3238C70.5579 75.5441 70.7612 74.7819 71.106 74.0807C71.4508 73.3795 71.9303 72.7532 72.5172 72.2373C73.104 71.7215 73.7868 71.3263 74.5264 71.0743C75.266 70.8223 76.048 70.7184 76.8277 70.7687L126.296 73.9549C126.661 73.9784 127.018 74.0736 127.346 74.235C127.675 74.3965 127.968 74.621 128.21 74.8959C128.451 75.1707 128.636 75.4904 128.754 75.8368C128.872 76.1832 128.921 76.5494 128.898 76.9146L128.491 83.2287C128.443 83.9662 128.105 84.6546 127.55 85.1425C126.995 85.6304 126.269 85.8778 125.531 85.8303Z" fill="#F95738"/>
<path d="M112.312 87.8731C112.247 87.8731 112.181 87.871 112.116 87.8668L71.4952 85.2503C71.102 85.225 70.7175 85.1225 70.3639 84.9487C70.0102 84.7748 69.6943 84.533 69.4341 84.237C69.174 83.941 68.9747 83.5967 68.8476 83.2237C68.7205 82.8507 68.6681 82.4563 68.6935 82.063L69.3881 71.2781C69.4134 70.8848 69.516 70.5004 69.6899 70.1468C69.8638 69.7931 70.1057 69.4772 70.4017 69.2171C70.6977 68.9569 71.042 68.7576 71.4151 68.6306C71.7881 68.5035 72.1825 68.4512 72.5758 68.4766L113.196 71.0928C113.99 71.1448 114.731 71.5096 115.256 72.1072C115.781 72.7047 116.048 73.4862 115.998 74.2801L115.303 85.0653C115.265 85.6432 115.061 86.1977 114.715 86.6624C114.369 87.1271 113.897 87.4821 113.354 87.6849C113.021 87.8096 112.668 87.8733 112.312 87.8731Z" fill="#2F2E41"/>
<path d="M65.4193 20.1227C68.2955 17.649 72.2451 19.8619 75.5434 19.4745C78.6991 19.1039 81.1908 16.2733 81.8273 13.2661C82.57 9.75777 80.749 6.2429 78.0649 4.0555C75.1252 1.65976 71.2265 0.972006 67.532 1.41524C63.2976 1.92323 59.425 3.89704 55.9502 6.28447C52.5961 8.51754 49.5117 11.1312 46.7585 14.0733C44.2931 16.7962 42.2042 20.0418 41.5372 23.7058C40.931 27.0356 41.3939 30.7255 43.3623 33.5463C44.4061 34.9921 45.8049 36.1445 47.4238 36.8923C49.1117 37.7211 50.9122 38.3137 52.5475 39.2508C55.02 40.6677 57.4231 43.6057 56.6486 46.6632C56.4826 47.3311 56.1549 47.9479 55.6944 48.4593C55.1411 49.0735 54.1431 48.2619 54.6978 47.6461C55.6721 46.5645 55.6338 45.122 55.1145 43.8307C54.4971 42.3756 53.4038 41.1733 52.0137 40.4208C50.3019 39.4422 48.4121 38.8381 46.6577 37.9466C44.9784 37.1323 43.5208 35.9243 42.4088 34.4255C40.309 31.5074 39.6809 27.7098 40.1571 24.1966C40.6725 20.3949 42.6258 16.9402 45.0744 14.0452C47.7392 10.8946 51.0125 8.2277 54.3565 5.83186C57.9446 3.2611 61.9088 1.0877 66.2954 0.301614C70.0979 -0.379798 74.2195 0.0397223 77.5447 2.11192C80.6484 4.04619 83.0285 7.3735 83.2652 11.0915C83.3502 12.7831 82.9829 14.4669 82.2011 15.9694C81.4193 17.472 80.2512 18.7391 78.8171 19.6403C77.3456 20.5209 75.6347 20.9173 73.9258 20.7735C72.0989 20.6565 70.2703 20.0971 68.4317 20.2524C67.5998 20.3029 66.8069 20.6233 66.1734 21.1649C65.545 21.7053 64.7961 20.6587 65.4193 20.1227Z" fill="#2F2E41"/>
</svg>
